<?xml version="1.0" encoding="UTF-8"?>
<!-- Created with Inkscape (http://www.inkscape.org/) -->
<svg width="210mm" height="297mm" version="1.1" viewBox="0 0 210 297" xmlns="http://www.w3.org/2000/svg">
 <path d="m113.55 92.258c-10.698 0-73.097 0.35502-73.097 0.35502v3.9h2.5725v6.7422h-2.5725v43.467h2.5725v6.7422h-2.5725v4.7935h103.61v-4.7935h-3.4205v-6.7422h3.6546c0.56178-4.7083 1.1133-18.325-11.453-17.885-9.3493 0-10.781-11.031-10.426-18.128 0.35484-7.0968 2.8389-18.452-8.8708-18.452zm-63.29 4.255h5.6772v6.7422h-5.6772v-6.7422zm12.912 0h5.6777v6.7422h-5.6777v-6.7422zm12.912 0h5.6772v6.7422h-5.6772v-6.7422zm12.912 0h5.6772v6.7422h-5.6772v-6.7422zm12.912 0h5.6777v6.7422h-5.6777v-6.7422zm12.912 0h5.6772v6.7422h-5.6772v-6.7422zm-64.561 50.209h5.6772v6.7422h-5.6772v-6.7422zm12.912 0h5.6777v6.7422h-5.6777v-6.7422zm12.912 0h5.6772v6.7422h-5.6772v-6.7422zm12.912 0h5.6772v6.7422h-5.6772v-6.7422zm12.912 0h5.6777v6.7422h-5.6777v-6.7422zm12.912 0h5.6772v6.7422h-5.6772v-6.7422zm12.912 0h5.6777v6.7422h-5.6777v-6.7422z" stroke-width="0"/>
</svg>
